{
	"asset":{
		"generator":"Khronos glTF Blender I/O v3.5.30",
		"version":"2.0"
	},
	"scene":0,
	"scenes":[
		{
			"name":"Scene",
			"nodes":[
				0,
				1
			]
		}
	],
	"nodes":[
		{
			"mesh":0,
			"name":"Donut",
			"translation":[
				0.005899748299270868,
				0.010510014370083809,
				-0.004545136820524931
			]
		},
		{
			"mesh":1,
			"name":"Icing",
			"rotation":[
				-0.0030744613613933325,
				-0.001721682376228273,
				0.005157458130270243,
				0.9999805092811584
			],
			"translation":[
				0.005899748299270868,
				0.010510014370083809,
				-0.004545136820524931
			]
		}
	],
	"materials":[
		{
			"doubleSided":true,
			"name":"Material.002",
			"pbrMetallicRoughness":{
				"baseColorFactor":[
					0.6500048041343689,
					0.30657845735549927,
					0.1279178112745285,
					1
				],
				"metallicFactor":0,
				"roughnessFactor":0.5
			}
		},
		{
			"doubleSided":true,
			"name":"Material.001",
			"pbrMetallicRoughness":{
				"baseColorFactor":[
					0.7612708806991577,
					0.19586658477783203,
					0.6904464960098267,
					1
				],
				"metallicFactor":0,
				"roughnessFactor":0.19970747828483582
			}
		}
	],
	"meshes":[
		{
			"name":"Torus.001",
			"primitives":[
				{
					"attributes":{
						"POSITION":0,
						"TEXCOORD_0":1,
						"NORMAL":2
					},
					"indices":3,
					"material":0
				}
			]
		},
		{
			"name":"Torus.002",
			"primitives":[
				{
					"attributes":{
						"POSITION":4,
						"TEXCOORD_0":5,
						"NORMAL":6
					},
					"indices":7,
					"material":1
				}
			]
		}
	],
	"accessors":[
		{
			"bufferView":0,
			"componentType":5126,
			"count":10465,
			"max":[
				0.04392705112695694,
				0.023514399304986,
				0.05054048076272011
			],
			"min":[
				-0.05467848479747772,
				-0.011595462448894978,
				-0.04594223201274872
			],
			"type":"VEC3"
		},
		{
			"bufferView":1,
			"componentType":5126,
			"count":10465,
			"type":"VEC2"
		},
		{
			"bufferView":2,
			"componentType":5126,
			"count":10465,
			"type":"VEC3"
		},
		{
			"bufferView":3,
			"componentType":5123,
			"count":61440,
			"type":"SCALAR"
		},
		{
			"bufferView":4,
			"componentType":5126,
			"count":11377,
			"max":[
				0.0448654443025589,
				0.025819748640060425,
				0.05151946470141411
			],
			"min":[
				-0.05657927319407463,
				-0.009956051595509052,
				-0.0469205267727375
			],
			"type":"VEC3"
		},
		{
			"bufferView":5,
			"componentType":5126,
			"count":11377,
			"type":"VEC2"
		},
		{
			"bufferView":6,
			"componentType":5126,
			"count":11377,
			"type":"VEC3"
		},
		{
			"bufferView":7,
			"componentType":5123,
			"count":67248,
			"type":"SCALAR"
		}
	],
	"bufferViews":[
		{
			"buffer":0,
			"byteLength":125580,
			"byteOffset":0,
			"target":34962
		},
		{
			"buffer":0,
			"byteLength":83720,
			"byteOffset":125580,
			"target":34962
		},
		{
			"buffer":0,
			"byteLength":125580,
			"byteOffset":209300,
			"target":34962
		},
		{
			"buffer":0,
			"byteLength":122880,
			"byteOffset":334880,
			"target":34963
		},
		{
			"buffer":0,
			"byteLength":136524,
			"byteOffset":457760,
			"target":34962
		},
		{
			"buffer":0,
			"byteLength":91016,
			"byteOffset":594284,
			"target":34962
		},
		{
			"buffer":0,
			"byteLength":136524,
			"byteOffset":685300,
			"target":34962
		},
		{
			"buffer":0,
			"byteLength":134496,
			"byteOffset":821824,
			"target":34963
		}
	],
	"buffers":[
		{
			"byteLength":956320,
			"uri":"data:application/octet-stream;base64,"
		}
	]
}
