<svg xmlns="http://www.w3.org/2000/svg" width="278" height="368" viewBox="0 0 278 368" version="1.1"><path d="M 96 67.043 C 83.539 70.253, 71.299 76.935, 62.206 85.488 C 45.967 100.765, 38.242 118.206, 37.724 140.769 L 37.500 150.500 32.185 151.149 C 24.835 152.046, 24.504 152.946, 31.766 152.287 C 36.638 151.846, 37.801 152.039, 38.314 153.375 C 38.858 154.794, 37.897 154.998, 30.719 154.985 C 24.575 154.973, 22.879 154.697, 24 153.890 C 25.206 153.023, 25.108 152.949, 23.500 153.514 C 22.400 153.901, 20.054 154.635, 18.286 155.145 C 13.534 156.518, 13.437 157.771, 17.989 158.997 C 20.216 159.597, 24.167 161.003, 26.769 162.122 C 29.371 163.241, 33.713 164.726, 36.417 165.421 C 40.989 166.597, 41.495 167.049, 43.612 171.846 L 45.889 177.006 42.912 178.546 C 39.207 180.461, 39.729 181.384, 45.417 182.977 C 48.673 183.888, 50.571 185.215, 52.408 187.864 C 56.250 193.402, 65.839 202.387, 72.175 206.385 L 77.851 209.966 79.561 204.816 C 80.786 201.129, 80.981 199.200, 80.249 198.027 C 79.336 196.565, 79.847 196.434, 85.014 196.807 C 92.333 197.337, 98.930 195.218, 106.525 189.898 C 110.798 186.904, 113.035 185.968, 115.372 186.196 L 118.500 186.500 118.801 231.500 C 119.161 285.340, 117.973 298.952, 112.376 305.137 C 109.714 308.078, 111.667 309, 120.559 309 C 129.158 309, 130.464 308.322, 127.526 305.383 C 126.716 304.573, 125.042 300.892, 123.808 297.205 C 121.620 290.669, 121.555 289.219, 121.223 239.750 C 121.036 211.837, 121.144 189, 121.463 189 C 121.782 189, 123.842 190.191, 126.042 191.646 C 128.241 193.102, 130.268 194.066, 130.545 193.788 C 130.823 193.510, 128.801 191.757, 126.051 189.892 C 122.496 187.480, 121.044 185.830, 121.026 184.182 L 121 181.864 123.960 183.972 C 127.259 186.320, 131.067 191.249, 131.415 193.620 C 131.540 194.471, 133.711 196.817, 136.241 198.834 C 141.257 202.832, 141.099 202.643, 168.519 237.500 C 189.416 264.064, 200.751 278.411, 215.329 296.750 L 225.067 309 233.867 309 C 238.707 309, 242.933 308.733, 243.259 308.408 C 243.762 307.905, 240.221 303.010, 229.500 289.387 C 227.553 286.914, 227.502 285.397, 227.582 232.673 C 227.662 180.256, 227.735 178.241, 229.844 170.500 C 231.044 166.100, 232.933 161.262, 234.042 159.750 L 236.060 157 226.947 157 C 221.934 157, 218.006 157.338, 218.218 157.750 C 225.429 171.820, 225.991 177.388, 225.996 234.750 C 225.998 261.288, 225.625 283, 225.166 283 C 224.291 283, 162 204.504, 162 203.402 C 162 203.053, 164.489 200.078, 167.532 196.792 C 177.220 186.328, 183.017 173.247, 184.503 158.500 C 184.891 154.650, 185.836 150.503, 186.604 149.285 C 187.372 148.067, 188 146.605, 188 146.035 C 188 145.346, 178.479 145, 159.500 145 C 141.167 145, 131 145.357, 131 146 C 131 146.592, 134.650 147, 139.951 147 C 157.241 147, 164.184 150.442, 166.971 160.398 C 168.554 166.051, 167.858 179.203, 165.585 186.588 C 163.957 191.876, 160.052 198.500, 158.563 198.500 C 158.091 198.500, 150.436 189.275, 141.551 178 L 125.397 157.500 114.624 157.215 C 105.162 156.965, 103.373 156.629, 99.925 154.453 C 97.766 153.090, 96 152.227, 96 152.535 C 96 153.566, 103.882 167.461, 106.405 170.875 C 107.776 172.731, 111.171 175.781, 113.949 177.651 C 117.174 179.823, 119 181.770, 119 183.035 C 119 184.874, 118.584 184.788, 113.250 181.849 C 98.078 173.490, 96.352 172.147, 91.207 164.705 C 81.940 151.300, 72.524 144.770, 59.886 142.984 C 56.532 142.510, 53.499 141.828, 53.144 141.468 C 52.104 140.412, 52.680 124.867, 53.998 118.427 C 57.171 102.934, 62.500 92.425, 72.085 82.762 C 79.735 75.050, 87.381 70.942, 98.816 68.397 C 119.739 63.743, 143.886 76.042, 159.241 99.176 C 161.255 102.210, 163.436 105.862, 164.087 107.291 C 165.422 110.222, 167.882 111.597, 168.454 109.733 C 171.767 98.949, 173.044 93.311, 172.587 91.490 C 172 89.150, 164.732 82.560, 156.763 77.143 C 150.420 72.830, 139.220 68.155, 131.116 66.437 C 121.541 64.407, 105.129 64.690, 96 67.043 M 64.735 145.983 C 69.926 148.339, 79.821 155.001, 82.405 157.878 C 85.195 160.985, 82.965 160.418, 79.827 157.222 C 74.046 151.336, 60 144.857, 60 148.076 C 60 149.535, 68.852 156.601, 74.146 159.365 L 79.500 162.162 76.403 159.331 C 74.699 157.774, 71.003 154.722, 68.188 152.548 C 65.374 150.374, 63.237 148.430, 63.440 148.227 C 63.643 148.024, 68.209 151.270, 73.588 155.441 C 79.414 159.960, 83.631 162.596, 84.022 161.965 C 84.449 161.274, 85.124 161.444, 85.961 162.453 C 88.147 165.087, 89.328 164.155, 87.485 161.250 C 83.001 154.186, 71.711 146.387, 63.500 144.683 C 61.119 144.188, 61.375 144.457, 64.735 145.983 M 53.495 148.250 C 53.855 150.037, 54.344 152.201, 54.581 153.058 C 55.558 156.583, 66.727 162.874, 80.056 167.407 C 87.390 169.902, 93.554 171.779, 93.753 171.580 C 94.512 170.821, 87.708 166.737, 81.874 164.451 C 72.716 160.862, 67.382 157.401, 60.972 150.891 C 54.295 144.109, 52.537 143.488, 53.495 148.250 M 29.500 157 C 29.133 157.593, 30.296 158, 32.359 158 C 34.272 158, 36.548 158.273, 37.418 158.607 C 38.456 159.005, 39 158.662, 39 157.607 C 39 156.372, 37.971 156, 34.559 156 C 32.116 156, 29.840 156.450, 29.500 157 M 55.612 158.430 C 55.913 159.217, 57.587 160.334, 59.330 160.912 L 62.500 161.965 59.500 159.487 C 56.108 156.686, 54.806 156.332, 55.612 158.430 M 25.669 160.040 C 26.649 160.986, 38.382 165, 40.168 165 C 43.089 165, 38.998 163.067, 32.169 161.220 C 28.136 160.129, 25.211 159.598, 25.669 160.040 M 33.198 159.531 C 34.230 160.563, 40 161.849, 40 161.047 C 40 160.599, 38.987 159.962, 37.750 159.630 C 34.947 158.879, 32.492 158.825, 33.198 159.531 M 60.750 164.708 C 57.588 165.197, 57.631 165.096, 59.161 168.453 C 59.842 169.948, 61.184 171.029, 62.411 171.070 C 64.178 171.130, 64.236 171.245, 62.787 171.821 C 61.750 172.232, 61.373 172.985, 61.833 173.729 C 62.431 174.697, 63.963 174.673, 69.046 173.618 L 75.500 172.278 70 171.176 C 65.328 170.240, 65.177 170.149, 69 170.574 C 88.471 172.740, 90.291 172.086, 77 167.701 C 68.222 164.805, 64.525 164.124, 60.750 164.708 M 105 164.675 C 105 165.269, 105.670 166.311, 106.489 166.991 C 107.308 167.671, 107.711 168.659, 107.384 169.187 C 107.058 169.716, 107.850 171.281, 109.145 172.666 C 111.718 175.417, 115.107 177.554, 114.896 176.293 C 114.529 174.104, 115.113 172.948, 116.250 173.613 C 116.938 174.015, 116.640 173.364, 115.589 172.166 C 114.539 170.968, 113.442 170.225, 113.152 170.514 C 112.863 170.804, 110.910 169.365, 108.813 167.317 C 106.716 165.270, 105 164.080, 105 164.675 M 108 169.313 C 108 169.485, 109.463 170.948, 111.250 172.563 L 114.500 175.500 111.563 172.250 C 108.825 169.221, 108 168.540, 108 169.313 M 78.045 174.446 C 77.205 175.458, 76.176 175.637, 74.617 175.045 C 72.320 174.171, 64.470 175.168, 63.210 176.493 C 62.434 177.309, 68.293 176.706, 71.500 175.640 C 72.600 175.274, 71.475 175.968, 69 177.182 C 65.781 178.761, 65.012 179.500, 66.298 179.777 C 67.287 179.991, 68.637 179.748, 69.298 179.238 C 71.064 177.875, 74.190 176.883, 73.573 177.881 C 73.282 178.353, 71.683 179.303, 70.021 179.991 C 68.360 180.679, 67 181.763, 67 182.399 C 67 183.035, 68.958 185.780, 71.352 188.501 C 75.671 193.408, 75.715 193.429, 77.093 191.223 C 77.856 190, 79.299 189, 80.300 189 C 81.300 189, 81.840 189.450, 81.500 190 C 80.718 191.266, 82.042 191.266, 84 190 C 85.333 189.138, 85.333 189.017, 84 188.910 C 79.480 188.548, 91.724 186.142, 98.417 186.077 C 108.391 185.980, 107.467 184.788, 96.701 183.862 L 88.500 183.157 97.500 183.576 C 102.450 183.806, 107.963 184.272, 109.750 184.611 C 116.097 185.814, 113.035 182.904, 102.750 177.958 C 93.668 173.591, 91.745 173.027, 85.872 173.014 C 81.297 173.004, 78.873 173.448, 78.045 174.446 M 85 185 C 84.099 185.582, 83.975 185.975, 84.691 185.985 C 85.346 185.993, 86.160 185.550, 86.500 185 C 87.267 183.758, 86.921 183.758, 85 185 M 88 188 C 85.738 188.725, 85.833 188.801, 89 188.801 C 90.925 188.801, 93.625 188.440, 95 188 C 97.262 187.275, 97.167 187.199, 94 187.199 C 92.075 187.199, 89.375 187.560, 88 188 M 100 188.526 C 99.175 188.688, 95.125 189.363, 91 190.026 C 82.441 191.403, 76.765 193.987, 79.727 195.159 C 83.074 196.481, 91.504 195.997, 96.204 194.212 C 101.331 192.265, 103.137 191.020, 100.917 190.965 C 100.138 190.945, 100.625 190.286, 102 189.500 C 104.323 188.172, 103.600 187.820, 100 188.526 M 91.500 192 C 88.824 192.681, 88.770 192.763, 91 192.763 C 92.375 192.763, 94.850 192.420, 96.500 192 C 99.176 191.319, 99.230 191.237, 97 191.237 C 95.625 191.237, 93.150 191.580, 91.500 192 M 82.250 193.689 C 83.213 193.941, 84.787 193.941, 85.750 193.689 C 86.713 193.438, 85.925 193.232, 84 193.232 C 82.075 193.232, 81.287 193.438, 82.250 193.689" stroke="none" fill="#443d41" fill-rule="evenodd"/><path d="M -0 184.003 L -0 368.007 139.250 367.753 L 278.500 367.500 278.753 183.750 L 279.005 0 139.503 0 L 0 0 -0 184.003 M 0.489 184.500 C 0.489 285.700, 0.607 327.248, 0.750 276.829 C 0.893 226.411, 0.893 143.611, 0.750 92.829 C 0.607 42.048, 0.489 83.300, 0.489 184.500 M 96 67.043 C 83.539 70.253, 71.299 76.935, 62.206 85.488 C 45.967 100.765, 38.242 118.206, 37.724 140.769 L 37.500 150.500 32.185 151.149 C 24.835 152.046, 24.504 152.946, 31.766 152.287 C 36.638 151.846, 37.801 152.039, 38.314 153.375 C 38.858 154.794, 37.897 154.998, 30.719 154.985 C 24.575 154.973, 22.879 154.697, 24 153.890 C 25.206 153.023, 25.108 152.949, 23.500 153.514 C 22.400 153.901, 20.054 154.635, 18.286 155.145 C 13.534 156.518, 13.437 157.771, 17.989 158.997 C 20.216 159.597, 24.167 161.003, 26.769 162.122 C 29.371 163.241, 33.713 164.726, 36.417 165.421 C 40.989 166.597, 41.495 167.049, 43.612 171.846 L 45.889 177.006 42.912 178.546 C 39.207 180.461, 39.729 181.384, 45.417 182.977 C 48.673 183.888, 50.571 185.215, 52.408 187.864 C 56.250 193.402, 65.839 202.387, 72.175 206.385 L 77.851 209.966 79.561 204.816 C 80.786 201.129, 80.981 199.200, 80.249 198.027 C 79.336 196.565, 79.847 196.434, 85.014 196.807 C 92.333 197.337, 98.930 195.218, 106.525 189.898 C 110.798 186.904, 113.035 185.968, 115.372 186.196 L 118.500 186.500 118.801 231.500 C 119.161 285.340, 117.973 298.952, 112.376 305.137 C 109.714 308.078, 111.667 309, 120.559 309 C 129.158 309, 130.464 308.322, 127.526 305.383 C 126.716 304.573, 125.042 300.892, 123.808 297.205 C 121.620 290.669, 121.555 289.219, 121.223 239.750 C 121.036 211.837, 121.144 189, 121.463 189 C 121.782 189, 123.842 190.191, 126.042 191.646 C 128.241 193.102, 130.268 194.066, 130.545 193.788 C 130.823 193.510, 128.801 191.757, 126.051 189.892 C 122.496 187.480, 121.044 185.830, 121.026 184.182 L 121 181.864 123.960 183.972 C 127.259 186.320, 131.067 191.249, 131.415 193.620 C 131.540 194.471, 133.711 196.817, 136.241 198.834 C 141.257 202.832, 141.099 202.643, 168.519 237.500 C 189.416 264.064, 200.751 278.411, 215.329 296.750 L 225.067 309 233.867 309 C 238.707 309, 242.933 308.733, 243.259 308.408 C 243.762 307.905, 240.221 303.010, 229.500 289.387 C 227.553 286.914, 227.502 285.397, 227.582 232.673 C 227.662 180.256, 227.735 178.241, 229.844 170.500 C 231.044 166.100, 232.933 161.262, 234.042 159.750 L 236.060 157 226.947 157 C 221.934 157, 218.006 157.338, 218.218 157.750 C 225.429 171.820, 225.991 177.388, 225.996 234.750 C 225.998 261.288, 225.625 283, 225.166 283 C 224.291 283, 162 204.504, 162 203.402 C 162 203.053, 164.489 200.078, 167.532 196.792 C 177.220 186.328, 183.017 173.247, 184.503 158.500 C 184.891 154.650, 185.836 150.503, 186.604 149.285 C 187.372 148.067, 188 146.605, 188 146.035 C 188 145.346, 178.479 145, 159.500 145 C 141.167 145, 131 145.357, 131 146 C 131 146.592, 134.650 147, 139.951 147 C 157.241 147, 164.184 150.442, 166.971 160.398 C 168.554 166.051, 167.858 179.203, 165.585 186.588 C 163.957 191.876, 160.052 198.500, 158.563 198.500 C 158.091 198.500, 150.436 189.275, 141.551 178 L 125.397 157.500 114.624 157.215 C 105.162 156.965, 103.373 156.629, 99.925 154.453 C 97.766 153.090, 96 152.227, 96 152.535 C 96 153.566, 103.882 167.461, 106.405 170.875 C 107.776 172.731, 111.171 175.781, 113.949 177.651 C 117.174 179.823, 119 181.770, 119 183.035 C 119 184.874, 118.584 184.788, 113.250 181.849 C 98.078 173.490, 96.352 172.147, 91.207 164.705 C 81.940 151.300, 72.524 144.770, 59.886 142.984 C 56.532 142.510, 53.499 141.828, 53.144 141.468 C 52.104 140.412, 52.680 124.867, 53.998 118.427 C 57.171 102.934, 62.500 92.425, 72.085 82.762 C 79.735 75.050, 87.381 70.942, 98.816 68.397 C 119.739 63.743, 143.886 76.042, 159.241 99.176 C 161.255 102.210, 163.436 105.862, 164.087 107.291 C 165.422 110.222, 167.882 111.597, 168.454 109.733 C 171.767 98.949, 173.044 93.311, 172.587 91.490 C 172 89.150, 164.732 82.560, 156.763 77.143 C 150.420 72.830, 139.220 68.155, 131.116 66.437 C 121.541 64.407, 105.129 64.690, 96 67.043 M 64.735 145.983 C 69.926 148.339, 79.821 155.001, 82.405 157.878 C 85.195 160.985, 82.965 160.418, 79.827 157.222 C 74.046 151.336, 60 144.857, 60 148.076 C 60 149.535, 68.852 156.601, 74.146 159.365 L 79.500 162.162 76.403 159.331 C 74.699 157.774, 71.003 154.722, 68.188 152.548 C 65.374 150.374, 63.237 148.430, 63.440 148.227 C 63.643 148.024, 68.209 151.270, 73.588 155.441 C 79.414 159.960, 83.631 162.596, 84.022 161.965 C 84.449 161.274, 85.124 161.444, 85.961 162.453 C 88.147 165.087, 89.328 164.155, 87.485 161.250 C 83.001 154.186, 71.711 146.387, 63.500 144.683 C 61.119 144.188, 61.375 144.457, 64.735 145.983 M 53.495 148.250 C 53.855 150.037, 54.344 152.201, 54.581 153.058 C 55.558 156.583, 66.727 162.874, 80.056 167.407 C 87.390 169.902, 93.554 171.779, 93.753 171.580 C 94.512 170.821, 87.708 166.737, 81.874 164.451 C 72.716 160.862, 67.382 157.401, 60.972 150.891 C 54.295 144.109, 52.537 143.488, 53.495 148.250 M 29.500 157 C 29.133 157.593, 30.296 158, 32.359 158 C 34.272 158, 36.548 158.273, 37.418 158.607 C 38.456 159.005, 39 158.662, 39 157.607 C 39 156.372, 37.971 156, 34.559 156 C 32.116 156, 29.840 156.450, 29.500 157 M 55.612 158.430 C 55.913 159.217, 57.587 160.334, 59.330 160.912 L 62.500 161.965 59.500 159.487 C 56.108 156.686, 54.806 156.332, 55.612 158.430 M 25.669 160.040 C 26.649 160.986, 38.382 165, 40.168 165 C 43.089 165, 38.998 163.067, 32.169 161.220 C 28.136 160.129, 25.211 159.598, 25.669 160.040 M 33.198 159.531 C 34.230 160.563, 40 161.849, 40 161.047 C 40 160.599, 38.987 159.962, 37.750 159.630 C 34.947 158.879, 32.492 158.825, 33.198 159.531 M 60.750 164.708 C 57.588 165.197, 57.631 165.096, 59.161 168.453 C 59.842 169.948, 61.184 171.029, 62.411 171.070 C 64.178 171.130, 64.236 171.245, 62.787 171.821 C 61.750 172.232, 61.373 172.985, 61.833 173.729 C 62.431 174.697, 63.963 174.673, 69.046 173.618 L 75.500 172.278 70 171.176 C 65.328 170.240, 65.177 170.149, 69 170.574 C 88.471 172.740, 90.291 172.086, 77 167.701 C 68.222 164.805, 64.525 164.124, 60.750 164.708 M 105 164.675 C 105 165.269, 105.670 166.311, 106.489 166.991 C 107.308 167.671, 107.711 168.659, 107.384 169.187 C 107.058 169.716, 107.850 171.281, 109.145 172.666 C 111.718 175.417, 115.107 177.554, 114.896 176.293 C 114.529 174.104, 115.113 172.948, 116.250 173.613 C 116.938 174.015, 116.640 173.364, 115.589 172.166 C 114.539 170.968, 113.442 170.225, 113.152 170.514 C 112.863 170.804, 110.910 169.365, 108.813 167.317 C 106.716 165.270, 105 164.080, 105 164.675 M 108 169.313 C 108 169.485, 109.463 170.948, 111.250 172.563 L 114.500 175.500 111.563 172.250 C 108.825 169.221, 108 168.540, 108 169.313 M 78.045 174.446 C 77.205 175.458, 76.176 175.637, 74.617 175.045 C 72.320 174.171, 64.470 175.168, 63.210 176.493 C 62.434 177.309, 68.293 176.706, 71.500 175.640 C 72.600 175.274, 71.475 175.968, 69 177.182 C 65.781 178.761, 65.012 179.500, 66.298 179.777 C 67.287 179.991, 68.637 179.748, 69.298 179.238 C 71.064 177.875, 74.190 176.883, 73.573 177.881 C 73.282 178.353, 71.683 179.303, 70.021 179.991 C 68.360 180.679, 67 181.763, 67 182.399 C 67 183.035, 68.958 185.780, 71.352 188.501 C 75.671 193.408, 75.715 193.429, 77.093 191.223 C 77.856 190, 79.299 189, 80.300 189 C 81.300 189, 81.840 189.450, 81.500 190 C 80.718 191.266, 82.042 191.266, 84 190 C 85.333 189.138, 85.333 189.017, 84 188.910 C 79.480 188.548, 91.724 186.142, 98.417 186.077 C 108.391 185.980, 107.467 184.788, 96.701 183.862 L 88.500 183.157 97.500 183.576 C 102.450 183.806, 107.963 184.272, 109.750 184.611 C 116.097 185.814, 113.035 182.904, 102.750 177.958 C 93.668 173.591, 91.745 173.027, 85.872 173.014 C 81.297 173.004, 78.873 173.448, 78.045 174.446 M 85 185 C 84.099 185.582, 83.975 185.975, 84.691 185.985 C 85.346 185.993, 86.160 185.550, 86.500 185 C 87.267 183.758, 86.921 183.758, 85 185 M 88 188 C 85.738 188.725, 85.833 188.801, 89 188.801 C 90.925 188.801, 93.625 188.440, 95 188 C 97.262 187.275, 97.167 187.199, 94 187.199 C 92.075 187.199, 89.375 187.560, 88 188 M 100 188.526 C 99.175 188.688, 95.125 189.363, 91 190.026 C 82.441 191.403, 76.765 193.987, 79.727 195.159 C 83.074 196.481, 91.504 195.997, 96.204 194.212 C 101.331 192.265, 103.137 191.020, 100.917 190.965 C 100.138 190.945, 100.625 190.286, 102 189.500 C 104.323 188.172, 103.600 187.820, 100 188.526 M 91.500 192 C 88.824 192.681, 88.770 192.763, 91 192.763 C 92.375 192.763, 94.850 192.420, 96.500 192 C 99.176 191.319, 99.230 191.237, 97 191.237 C 95.625 191.237, 93.150 191.580, 91.500 192 M 82.250 193.689 C 83.213 193.941, 84.787 193.941, 85.750 193.689 C 86.713 193.438, 85.925 193.232, 84 193.232 C 82.075 193.232, 81.287 193.438, 82.250 193.689" stroke="none" fill="#f3f3eb" fill-rule="evenodd"/></svg>